# xmcd
#
# Track frame offsets:
#	150
#	14096
#	28571
#	39073
#	52091
#	66590
#	77843
#	93147
#	109213
#	129913
#	146835
#	162580
#	173604
#	185236
#	199688
#	217364
#	230086
#	241353
#	252537
#	269709
#
# Disc length: 3798 seconds
#
# Revision: 0
# Processed by: cddbd v1.4PL0 Copyright (c) Steve Scherf et al.
# Submitted via: dBpowerAMP V4.0
#
DISCID=370ed414
DTITLE=Various Artist - The Most Awesome Line Dancing Album
DYEAR=2003
DGENRE=Country
TTITLE0=George Ducas - Teardrops
TTITLE1=Eddie Rabbit - I love a rainy night
TTITLE2=Glen Campbell - Livin' in a house full of love
TTITLE3=Dean Miller - Wake up and smell the whiskey
TTITLE4=Sandi West - Three days
TTITLE5=Mel McDanie - Bordertown woman
TTITLE6=Dean Miller - Nowhere USA
TTITLE7=Lacy J. Dalton - Lonesome (as the night is long)
TTITLE8=Pussycat - Mississippi
TTITLE9=Mindy McCready - I just want love
TTITLE10=Marsha Britton - Snap
TTITLE11=Shane Worley - Rosie's on a roll
TTITLE12=Billy "Crash" Craddock - Sea Cruise
TTITLE13=Steven Wayne Horton - Got a lot of livin' to do
TTITLE14=Eddy Raven - Sooner or later
TTITLE15=Wild Rose - Who needs you
TTITLE16=Shenandoh - Dared if I don't (danged if I do)
TTITLE17=Gene Watson - This is my year for Mexico
TTITLE18=Tanya Tucker - Time and distance
TTITLE19=Verlon Thompson - Slow goodbye
EXTD=
EXTT0=
EXTT1=
EXTT2=
EXTT3=
EXTT4=
EXTT5=
EXTT6=
EXTT7=
EXTT8=
EXTT9=
EXTT10=
EXTT11=
EXTT12=
EXTT13=
EXTT14=
EXTT15=
EXTT16=
EXTT17=
EXTT18=
EXTT19=
PLAYORDER=
